<svg width="19" height="17" viewBox="0 0 19 17" fill="none" xmlns="http://www.w3.org/2000/svg">
<path d="M8.16666 0.166672C8.60868 0.166672 9.03261 0.342266 9.34517 0.654827C9.65773 0.967388 9.83332 1.39131 9.83332 1.83334V15.1667C9.83332 15.6087 9.65773 16.0326 9.34517 16.3452C9.03261 16.6577 8.60868 16.8333 8.16666 16.8333H0.666656V0.166672H8.16666ZM2.33332 6.83334V10.1667H8.16666V6.83334H2.33332ZM2.33332 11.8333V15.1667H8.16666V11.8333H2.33332ZM2.33332 1.83334V5.16667H8.16666V1.83334H2.33332ZM11.5 7.66667H14V5.16667H15.6667V7.66667H18.1667V9.33334H15.6667V11.8333H14V9.33334H11.5V7.66667Z" fill="#555555"/>
</svg>
