<svg width="18" height="18" viewBox="0 0 18 18" fill="none" xmlns="http://www.w3.org/2000/svg">
<path d="M8.99999 15.6667C5.32499 15.6667 2.33332 12.675 2.33332 8.99999C2.33332 5.32499 5.32499 2.33332 8.99999 2.33332C12.675 2.33332 15.6667 5.32499 15.6667 8.99999C15.6667 12.675 12.675 15.6667 8.99999 15.6667ZM8.99999 0.666656C7.90564 0.666656 6.82201 0.882205 5.81096 1.30099C4.79991 1.71978 3.88125 2.33361 3.10743 3.10743C1.54463 4.67024 0.666656 6.78985 0.666656 8.99999C0.666656 11.2101 1.54463 13.3297 3.10743 14.8925C3.88125 15.6664 4.79991 16.2802 5.81096 16.699C6.82201 17.1178 7.90564 17.3333 8.99999 17.3333C11.2101 17.3333 13.3297 16.4553 14.8925 14.8925C16.4553 13.3297 17.3333 11.2101 17.3333 8.99999C17.3333 7.90564 17.1178 6.82201 16.699 5.81096C16.2802 4.79991 15.6664 3.88125 14.8925 3.10743C14.1187 2.33361 13.2001 1.71978 12.189 1.30099C11.178 0.882205 10.0943 0.666656 8.99999 0.666656ZM9.83332 4.83332H8.16666V8.16666H4.83332V9.83332H8.16666V13.1667H9.83332V9.83332H13.1667V8.16666H9.83332V4.83332Z" fill="#555555"/>
</svg>
