<svg width="18" height="18" viewBox="0 0 18 18" fill="none" xmlns="http://www.w3.org/2000/svg">
<path d="M15.3802 14.7292C15.3802 15.0872 15.0872 15.3802 14.7292 15.3802C14.3711 15.3802 14.0781 15.0872 14.0781 14.7292C14.0781 14.3711 14.3711 14.0781 14.7292 14.0781C15.0872 14.0781 15.3802 14.3711 15.3802 14.7292ZM12.6458 14.0781C12.2878 14.0781 11.9948 14.3711 11.9948 14.7292C11.9948 15.0872 12.2878 15.3802 12.6458 15.3802C13.0039 15.3802 13.2969 15.0872 13.2969 14.7292C13.2969 14.3711 13.0039 14.0781 12.6458 14.0781ZM17.3333 12.5156V15.901C17.3333 16.692 16.6921 17.3333 15.901 17.3333H2.09896C1.30794 17.3333 0.666664 16.692 0.666664 15.901V12.5156C0.666664 11.7246 1.30794 11.0833 2.09896 11.0833H5.33463L3.4987 9.24739C2.67838 8.42707 3.26107 7.02408 4.41992 7.02408H6.13541V1.96874C6.13541 1.24934 6.7181 0.666656 7.4375 0.666656H10.5625C11.2819 0.666656 11.8646 1.24934 11.8646 1.96874V7.02408H13.5801C14.7389 7.02408 15.3184 8.42707 14.5013 9.24739L12.6654 11.0833H15.901C16.6921 11.0833 17.3333 11.7246 17.3333 12.5156ZM8.81445 13.0918C8.91536 13.1927 9.08138 13.1927 9.18229 13.0918L13.7624 8.51171C13.9251 8.34895 13.8112 8.06575 13.5768 8.06575H10.8229V1.96874C10.8229 1.82551 10.7057 1.70832 10.5625 1.70832H7.4375C7.29427 1.70832 7.17708 1.82551 7.17708 1.96874V8.06575H4.41992C4.1888 8.06575 4.07161 8.34569 4.23437 8.51171L8.81445 13.0918ZM16.2917 12.5156C16.2917 12.3008 16.1159 12.125 15.901 12.125H11.6237L9.92122 13.8275C9.41341 14.3353 8.58659 14.3353 8.07877 13.8275L6.3763 12.125H2.09896C1.88411 12.125 1.70833 12.3008 1.70833 12.5156V15.901C1.70833 16.1159 1.88411 16.2917 2.09896 16.2917H15.901C16.1159 16.2917 16.2917 16.1159 16.2917 15.901V12.5156Z" fill="#555555"/>
</svg>
