<svg width="115" height="25" viewBox="0 0 115 25" fill="none" xmlns="http://www.w3.org/2000/svg">
<path d="M18.75 3.33331H16.5V0.895813C16.5 0.586438 16.2469 0.333313 15.9375 0.333313H15.5625C15.2531 0.333313 15 0.586438 15 0.895813V3.33331H6V0.895813C6 0.586438 5.74687 0.333313 5.4375 0.333313H5.0625C4.75313 0.333313 4.5 0.586438 4.5 0.895813V3.33331H2.25C1.00781 3.33331 0 4.34113 0 5.58331V22.0833C0 23.3255 1.00781 24.3333 2.25 24.3333H18.75C19.9922 24.3333 21 23.3255 21 22.0833V5.58331C21 4.34113 19.9922 3.33331 18.75 3.33331ZM2.25 4.83331H18.75C19.1625 4.83331 19.5 5.17081 19.5 5.58331V7.83331H1.5V5.58331C1.5 5.17081 1.8375 4.83331 2.25 4.83331ZM18.75 22.8333H2.25C1.8375 22.8333 1.5 22.4958 1.5 22.0833V9.33331H19.5V22.0833C19.5 22.4958 19.1625 22.8333 18.75 22.8333ZM6.9375 15.3333H5.0625C4.75313 15.3333 4.5 15.0802 4.5 14.7708V12.8958C4.5 12.5864 4.75313 12.3333 5.0625 12.3333H6.9375C7.24687 12.3333 7.5 12.5864 7.5 12.8958V14.7708C7.5 15.0802 7.24687 15.3333 6.9375 15.3333ZM11.4375 15.3333H9.5625C9.25313 15.3333 9 15.0802 9 14.7708V12.8958C9 12.5864 9.25313 12.3333 9.5625 12.3333H11.4375C11.7469 12.3333 12 12.5864 12 12.8958V14.7708C12 15.0802 11.7469 15.3333 11.4375 15.3333ZM15.9375 15.3333H14.0625C13.7531 15.3333 13.5 15.0802 13.5 14.7708V12.8958C13.5 12.5864 13.7531 12.3333 14.0625 12.3333H15.9375C16.2469 12.3333 16.5 12.5864 16.5 12.8958V14.7708C16.5 15.0802 16.2469 15.3333 15.9375 15.3333ZM11.4375 19.8333H9.5625C9.25313 19.8333 9 19.5802 9 19.2708V17.3958C9 17.0864 9.25313 16.8333 9.5625 16.8333H11.4375C11.7469 16.8333 12 17.0864 12 17.3958V19.2708C12 19.5802 11.7469 19.8333 11.4375 19.8333ZM6.9375 19.8333H5.0625C4.75313 19.8333 4.5 19.5802 4.5 19.2708V17.3958C4.5 17.0864 4.75313 16.8333 5.0625 16.8333H6.9375C7.24687 16.8333 7.5 17.0864 7.5 17.3958V19.2708C7.5 19.5802 7.24687 19.8333 6.9375 19.8333ZM15.9375 19.8333H14.0625C13.7531 19.8333 13.5 19.5802 13.5 19.2708V17.3958C13.5 17.0864 13.7531 16.8333 14.0625 16.8333H15.9375C16.2469 16.8333 16.5 17.0864 16.5 17.3958V19.2708C16.5 19.5802 16.2469 19.8333 15.9375 19.8333Z" fill="white"/>
<path d="M47.2559 13.1292C45.8086 12.7132 44.7539 12.2034 44.0918 11.5999C43.4355 10.9905 43.1074 10.2405 43.1074 9.34991C43.1074 8.3421 43.5088 7.51007 44.3115 6.85382C45.1201 6.19171 46.1689 5.86066 47.458 5.86066C48.3369 5.86066 49.1191 6.03058 49.8047 6.37042C50.4961 6.71027 51.0293 7.17902 51.4043 7.77667C51.7852 8.37433 51.9756 9.02765 51.9756 9.73663H50.2793C50.2793 8.9632 50.0332 8.35675 49.541 7.9173C49.0488 7.47198 48.3545 7.24933 47.458 7.24933C46.626 7.24933 45.9756 7.4339 45.5068 7.80304C45.0439 8.16632 44.8125 8.67316 44.8125 9.32355C44.8125 9.84503 45.0322 10.2874 45.4717 10.6507C45.917 11.0081 46.6699 11.3362 47.7305 11.6351C48.7969 11.9339 49.6289 12.265 50.2266 12.6282C50.8301 12.9857 51.2754 13.4046 51.5625 13.8851C51.8555 14.3655 52.002 14.931 52.002 15.5814C52.002 16.6185 51.5977 17.4505 50.7891 18.0775C49.9805 18.6985 48.8994 19.0091 47.5459 19.0091C46.667 19.0091 45.8467 18.8421 45.085 18.5081C44.3232 18.1683 43.7344 17.7054 43.3184 17.1194C42.9082 16.5335 42.7031 15.8685 42.7031 15.1243H44.3994C44.3994 15.8978 44.6836 16.5101 45.252 16.9612C45.8262 17.4066 46.5908 17.6292 47.5459 17.6292C48.4365 17.6292 49.1191 17.4476 49.5938 17.0843C50.0684 16.721 50.3057 16.2259 50.3057 15.5989C50.3057 14.972 50.0859 14.4886 49.6465 14.1487C49.207 13.803 48.4102 13.4632 47.2559 13.1292ZM57.7324 17.6819C58.3125 17.6819 58.8193 17.5062 59.2529 17.1546C59.6865 16.803 59.9268 16.3636 59.9736 15.8362H61.5117C61.4824 16.3812 61.2949 16.8997 60.9492 17.3919C60.6035 17.8841 60.1406 18.2767 59.5605 18.5696C58.9863 18.8626 58.377 19.0091 57.7324 19.0091C56.4375 19.0091 55.4062 18.5784 54.6387 17.7171C53.877 16.8499 53.4961 15.6663 53.4961 14.1663V13.8939C53.4961 12.9681 53.666 12.1448 54.0059 11.4241C54.3457 10.7034 54.832 10.1439 55.4648 9.74542C56.1035 9.34698 56.8564 9.14777 57.7236 9.14777C58.79 9.14777 59.6748 9.4671 60.3779 10.1058C61.0869 10.7444 61.4648 11.5735 61.5117 12.5931H59.9736C59.9268 11.9778 59.6924 11.4739 59.2705 11.0814C58.8545 10.6829 58.3389 10.4837 57.7236 10.4837C56.8975 10.4837 56.2559 10.7825 55.7988 11.3802C55.3477 11.972 55.1221 12.8304 55.1221 13.9554V14.263C55.1221 15.3587 55.3477 16.2025 55.7988 16.7943C56.25 17.386 56.8945 17.6819 57.7324 17.6819ZM64.9658 10.4749C65.6865 9.59015 66.624 9.14777 67.7783 9.14777C69.7881 9.14777 70.8018 10.2816 70.8193 12.5491V18.8333H69.1934V12.5403C69.1875 11.8548 69.0293 11.348 68.7188 11.0198C68.4141 10.6917 67.9365 10.5276 67.2861 10.5276C66.7588 10.5276 66.2959 10.6683 65.8975 10.9495C65.499 11.2308 65.1885 11.5999 64.9658 12.0569V18.8333H63.3398V5.33331H64.9658V10.4749ZM77.2002 19.0091C75.9111 19.0091 74.8623 18.5872 74.0537 17.7435C73.2451 16.8939 72.8408 15.7601 72.8408 14.3421V14.0433C72.8408 13.0999 73.0195 12.2591 73.377 11.5208C73.7402 10.7767 74.2441 10.1966 74.8887 9.78058C75.5391 9.3587 76.2422 9.14777 76.998 9.14777C78.2344 9.14777 79.1953 9.55499 79.8809 10.3694C80.5664 11.1839 80.9092 12.3499 80.9092 13.8675V14.5443H74.4668C74.4902 15.4818 74.7627 16.2405 75.2842 16.8206C75.8115 17.3948 76.4795 17.6819 77.2881 17.6819C77.8623 17.6819 78.3486 17.5648 78.7471 17.3304C79.1455 17.096 79.4941 16.7855 79.793 16.3987L80.7861 17.1722C79.9893 18.3968 78.7939 19.0091 77.2002 19.0091ZM76.998 10.4837C76.3418 10.4837 75.791 10.7239 75.3457 11.2044C74.9004 11.679 74.625 12.347 74.5195 13.2083H79.2832V13.0853C79.2363 12.2591 79.0137 11.6204 78.6152 11.1693C78.2168 10.7122 77.6777 10.4837 76.998 10.4837ZM82.4033 13.9993C82.4033 12.5403 82.749 11.3685 83.4404 10.4837C84.1318 9.59308 85.0371 9.14777 86.1562 9.14777C87.2695 9.14777 88.1514 9.52863 88.8018 10.2903V5.33331H90.4277V18.8333H88.9336L88.8545 17.8138C88.2041 18.6107 87.2988 19.0091 86.1387 19.0091C85.0371 19.0091 84.1377 18.5579 83.4404 17.6556C82.749 16.7532 82.4033 15.5755 82.4033 14.1224V13.9993ZM84.0293 14.1839C84.0293 15.262 84.252 16.1058 84.6973 16.7151C85.1426 17.3245 85.7578 17.6292 86.543 17.6292C87.5742 17.6292 88.3271 17.1663 88.8018 16.2405V11.8724C88.3154 10.9759 87.5684 10.5276 86.5605 10.5276C85.7637 10.5276 85.1426 10.8353 84.6973 11.4505C84.252 12.0657 84.0293 12.9769 84.0293 14.1839ZM98.8301 17.8929C98.1973 18.637 97.2686 19.0091 96.0439 19.0091C95.0303 19.0091 94.2568 18.7161 93.7236 18.1302C93.1963 17.5384 92.9297 16.6653 92.9238 15.511V9.32355H94.5498V15.4671C94.5498 16.9085 95.1357 17.6292 96.3076 17.6292C97.5498 17.6292 98.376 17.1663 98.7861 16.2405V9.32355H100.412V18.8333H98.8652L98.8301 17.8929ZM104.657 18.8333H103.031V5.33331H104.657V18.8333ZM111.214 19.0091C109.925 19.0091 108.876 18.5872 108.067 17.7435C107.259 16.8939 106.854 15.7601 106.854 14.3421V14.0433C106.854 13.0999 107.033 12.2591 107.391 11.5208C107.754 10.7767 108.258 10.1966 108.902 9.78058C109.553 9.3587 110.256 9.14777 111.012 9.14777C112.248 9.14777 113.209 9.55499 113.895 10.3694C114.58 11.1839 114.923 12.3499 114.923 13.8675V14.5443H108.48C108.504 15.4818 108.776 16.2405 109.298 16.8206C109.825 17.3948 110.493 17.6819 111.302 17.6819C111.876 17.6819 112.362 17.5648 112.761 17.3304C113.159 17.096 113.508 16.7855 113.807 16.3987L114.8 17.1722C114.003 18.3968 112.808 19.0091 111.214 19.0091ZM111.012 10.4837C110.355 10.4837 109.805 10.7239 109.359 11.2044C108.914 11.679 108.639 12.347 108.533 13.2083H113.297V13.0853C113.25 12.2591 113.027 11.6204 112.629 11.1693C112.23 10.7122 111.691 10.4837 111.012 10.4837Z" fill="white"/>
</svg>
