<svg width="94" height="25" viewBox="0 0 94 25" fill="none" xmlns="http://www.w3.org/2000/svg">
<path d="M9 4.83331C6.51868 4.83331 4.5 6.85199 4.5 9.33332C4.5 11.8146 6.51868 13.8333 9 13.8333C11.4813 13.8333 13.5 11.8146 13.5 9.33332C13.5 6.85199 11.4813 4.83331 9 4.83331ZM9 12.3333C7.34579 12.3333 6 10.9875 6 9.33332C6 7.6791 7.34579 6.33332 9 6.33332C10.6542 6.33332 12 7.6791 12 9.33332C12 10.9875 10.6542 12.3333 9 12.3333ZM9 0.333313C4.02942 0.333313 0 4.36274 0 9.33332C0 12.9621 1.26422 13.9754 8.07507 23.8491C8.52197 24.4947 9.47799 24.4948 9.92499 23.8491C16.7358 13.9754 18 12.9621 18 9.33332C18 4.36274 13.9706 0.333313 9 0.333313ZM9 22.5488C2.47055 13.1062 1.5 12.3565 1.5 9.33332C1.5 7.32997 2.28014 5.44658 3.69671 4.03002C5.11327 2.61345 6.99666 1.83331 9 1.83331C11.0034 1.83331 12.8867 2.61345 14.3033 4.03002C15.7199 5.44658 16.5 7.32997 16.5 9.33332C16.5 12.3563 15.5301 13.1054 9 22.5488Z" fill="white"/>
<path d="M44.1729 13.8235V18.8333H42.4854V6.03644H47.2051C48.6055 6.03644 49.7012 6.39386 50.4922 7.1087C51.2891 7.82355 51.6875 8.76984 51.6875 9.94757C51.6875 11.1898 51.2979 12.1478 50.5186 12.8216C49.7451 13.4896 48.6348 13.8235 47.1875 13.8235H44.1729ZM44.1729 12.4437H47.2051C48.1074 12.4437 48.7988 12.2327 49.2793 11.8109C49.7598 11.3831 50 10.7679 50 9.96515C50 9.20343 49.7598 8.59406 49.2793 8.13702C48.7988 7.67999 48.1396 7.44269 47.3018 7.42511H44.1729V12.4437ZM55.3525 18.8333H53.7266V5.33331H55.3525V18.8333ZM63.834 18.8333C63.7402 18.6458 63.6641 18.3118 63.6055 17.8314C62.8496 18.6165 61.9473 19.0091 60.8984 19.0091C59.9609 19.0091 59.1904 18.7454 58.5869 18.2181C57.9893 17.6849 57.6904 17.011 57.6904 16.1966C57.6904 15.2064 58.0654 14.4388 58.8154 13.8939C59.5713 13.3431 60.6318 13.0677 61.9971 13.0677H63.5791V12.3206C63.5791 11.7523 63.4092 11.3011 63.0693 10.9671C62.7295 10.6273 62.2285 10.4573 61.5664 10.4573C60.9863 10.4573 60.5 10.6038 60.1074 10.8968C59.7148 11.1898 59.5186 11.5443 59.5186 11.9603H57.8838C57.8838 11.4857 58.0508 11.0286 58.3848 10.5892C58.7246 10.1439 59.1816 9.7923 59.7559 9.53448C60.3359 9.27667 60.9717 9.14777 61.6631 9.14777C62.7588 9.14777 63.6172 9.42316 64.2383 9.97394C64.8594 10.5189 65.1816 11.2718 65.2051 12.2327V16.6097C65.2051 17.4827 65.3164 18.1771 65.5391 18.6927V18.8333H63.834ZM61.1357 17.5941C61.6455 17.5941 62.1289 17.4622 62.5859 17.1985C63.043 16.9349 63.374 16.5921 63.5791 16.1702V14.2191H62.3047C60.3125 14.2191 59.3164 14.8021 59.3164 15.9681C59.3164 16.4778 59.4863 16.8763 59.8262 17.1634C60.166 17.4505 60.6025 17.5941 61.1357 17.5941ZM71.5684 17.6819C72.1484 17.6819 72.6553 17.5062 73.0889 17.1546C73.5225 16.803 73.7627 16.3636 73.8096 15.8362H75.3477C75.3184 16.3812 75.1309 16.8997 74.7852 17.3919C74.4395 17.8841 73.9766 18.2767 73.3965 18.5696C72.8223 18.8626 72.2129 19.0091 71.5684 19.0091C70.2734 19.0091 69.2422 18.5784 68.4746 17.7171C67.7129 16.8499 67.332 15.6663 67.332 14.1663V13.8939C67.332 12.9681 67.502 12.1448 67.8418 11.4241C68.1816 10.7034 68.668 10.1439 69.3008 9.74542C69.9395 9.34698 70.6924 9.14777 71.5596 9.14777C72.626 9.14777 73.5107 9.4671 74.2139 10.1058C74.9229 10.7444 75.3008 11.5735 75.3477 12.5931H73.8096C73.7627 11.9778 73.5283 11.4739 73.1064 11.0814C72.6904 10.6829 72.1748 10.4837 71.5596 10.4837C70.7334 10.4837 70.0918 10.7825 69.6348 11.3802C69.1836 11.972 68.958 12.8304 68.958 13.9554V14.263C68.958 15.3587 69.1836 16.2025 69.6348 16.7943C70.0859 17.386 70.7305 17.6819 71.5684 17.6819ZM81.1221 19.0091C79.833 19.0091 78.7842 18.5872 77.9756 17.7435C77.167 16.8939 76.7627 15.7601 76.7627 14.3421V14.0433C76.7627 13.0999 76.9414 12.2591 77.2988 11.5208C77.6621 10.7767 78.166 10.1966 78.8105 9.78058C79.4609 9.3587 80.1641 9.14777 80.9199 9.14777C82.1562 9.14777 83.1172 9.55499 83.8027 10.3694C84.4883 11.1839 84.8311 12.3499 84.8311 13.8675V14.5443H78.3887C78.4121 15.4818 78.6846 16.2405 79.2061 16.8206C79.7334 17.3948 80.4014 17.6819 81.21 17.6819C81.7842 17.6819 82.2705 17.5648 82.6689 17.3304C83.0674 17.096 83.416 16.7855 83.7148 16.3987L84.708 17.1722C83.9111 18.3968 82.7158 19.0091 81.1221 19.0091ZM80.9199 10.4837C80.2637 10.4837 79.7129 10.7239 79.2676 11.2044C78.8223 11.679 78.5469 12.347 78.4414 13.2083H83.2051V13.0853C83.1582 12.2591 82.9355 11.6204 82.5371 11.1693C82.1387 10.7122 81.5996 10.4837 80.9199 10.4837ZM92.2578 16.3109C92.2578 15.8714 92.0908 15.5316 91.7568 15.2913C91.4287 15.0452 90.8516 14.8343 90.0254 14.6585C89.2051 14.4827 88.5518 14.2718 88.0654 14.0257C87.585 13.7796 87.2275 13.4866 86.9932 13.1468C86.7646 12.8069 86.6504 12.4026 86.6504 11.9339C86.6504 11.1546 86.9785 10.4954 87.6348 9.95636C88.2969 9.4173 89.1406 9.14777 90.166 9.14777C91.2441 9.14777 92.1172 9.42609 92.7852 9.98273C93.459 10.5394 93.7959 11.2513 93.7959 12.1185H92.1611C92.1611 11.6732 91.9707 11.2894 91.5898 10.9671C91.2148 10.6448 90.7402 10.4837 90.166 10.4837C89.5742 10.4837 89.1113 10.6126 88.7773 10.8704C88.4434 11.1282 88.2764 11.4651 88.2764 11.8812C88.2764 12.2737 88.4316 12.5696 88.7422 12.7689C89.0527 12.9681 89.6123 13.1585 90.4209 13.3401C91.2354 13.5218 91.8945 13.7386 92.3984 13.9905C92.9023 14.2425 93.2744 14.5472 93.5146 14.9046C93.7607 15.2562 93.8838 15.6868 93.8838 16.1966C93.8838 17.0462 93.5439 17.7288 92.8643 18.2444C92.1846 18.7542 91.3027 19.0091 90.2188 19.0091C89.457 19.0091 88.7832 18.8743 88.1973 18.6048C87.6113 18.3353 87.1514 17.9603 86.8174 17.4798C86.4893 16.9935 86.3252 16.4691 86.3252 15.9066H87.9512C87.9805 16.4515 88.1973 16.8851 88.6016 17.2073C89.0117 17.5237 89.5508 17.6819 90.2188 17.6819C90.834 17.6819 91.3262 17.5589 91.6953 17.3128C92.0703 17.0609 92.2578 16.7269 92.2578 16.3109Z" fill="white"/>
</svg>
