<svg width="82" height="25" viewBox="0 0 82 25" fill="none" xmlns="http://www.w3.org/2000/svg">
<path d="M13.125 11.5833H7.875C7.66875 11.5833 7.5 11.7521 7.5 11.9583V12.7083C7.5 12.9146 7.66875 13.0833 7.875 13.0833H13.125C13.3313 13.0833 13.5 12.9146 13.5 12.7083V11.9583C13.5 11.7521 13.3313 11.5833 13.125 11.5833ZM13.125 16.0833H7.875C7.66875 16.0833 7.5 16.2521 7.5 16.4583V17.2083C7.5 17.4146 7.66875 17.5833 7.875 17.5833H13.125C13.3313 17.5833 13.5 17.4146 13.5 17.2083V16.4583C13.5 16.2521 13.3313 16.0833 13.125 16.0833ZM5.25 11.2083C4.62656 11.2083 4.125 11.7099 4.125 12.3333C4.125 12.9568 4.62656 13.4583 5.25 13.4583C5.87344 13.4583 6.375 12.9568 6.375 12.3333C6.375 11.7099 5.87344 11.2083 5.25 11.2083ZM5.25 15.7083C4.62656 15.7083 4.125 16.2099 4.125 16.8333C4.125 17.4568 4.62656 17.9583 5.25 17.9583C5.87344 17.9583 6.375 17.4568 6.375 16.8333C6.375 16.2099 5.87344 15.7083 5.25 15.7083ZM15.75 3.33331H11.5969C11.6156 3.21144 11.625 3.08488 11.625 2.95831C11.625 1.50988 10.4484 0.333313 9 0.333313C7.55156 0.333313 6.375 1.50988 6.375 2.95831C6.375 3.08488 6.38438 3.21144 6.40313 3.33331H2.25C1.00781 3.33331 0 4.34113 0 5.58331V22.0833C0 23.3255 1.00781 24.3333 2.25 24.3333H15.75C16.9922 24.3333 18 23.3255 18 22.0833V5.58331C18 4.34113 16.9922 3.33331 15.75 3.33331ZM9 1.83331C9.62344 1.83331 10.125 2.33488 10.125 2.95831C10.125 3.58175 9.62344 4.08331 9 4.08331C8.37656 4.08331 7.875 3.58175 7.875 2.95831C7.875 2.33488 8.37656 1.83331 9 1.83331ZM16.5 22.0833C16.5 22.4958 16.1625 22.8333 15.75 22.8333H2.25C1.8375 22.8333 1.5 22.4958 1.5 22.0833V5.58331C1.5 5.17081 1.8375 4.83331 2.25 4.83331H4.5V5.77081C4.5 6.08019 4.75313 6.33331 5.0625 6.33331H12.9375C13.2469 6.33331 13.5 6.08019 13.5 5.77081V4.83331H15.75C16.1625 4.83331 16.5 5.17081 16.5 5.58331V22.0833Z" fill="white"/>
<path d="M49.543 13.1819H44.1729V18.8333H42.4854V6.03644H50.4131V7.42511H44.1729V11.8021H49.543V13.1819ZM51.5557 13.9905C51.5557 13.0589 51.7373 12.221 52.1006 11.4769C52.4697 10.7327 52.9795 10.1585 53.6299 9.75421C54.2861 9.34991 55.0332 9.14777 55.8711 9.14777C57.166 9.14777 58.2119 9.59601 59.0088 10.4925C59.8115 11.389 60.2129 12.5814 60.2129 14.0696V14.1839C60.2129 15.1097 60.0342 15.9417 59.6768 16.68C59.3252 17.4124 58.8184 17.9837 58.1562 18.3939C57.5 18.804 56.7441 19.0091 55.8887 19.0091C54.5996 19.0091 53.5537 18.5609 52.751 17.6644C51.9541 16.7679 51.5557 15.5814 51.5557 14.1048V13.9905ZM53.1904 14.1839C53.1904 15.2386 53.4336 16.0853 53.9199 16.7239C54.4121 17.3626 55.0684 17.6819 55.8887 17.6819C56.7148 17.6819 57.3711 17.3597 57.8574 16.7151C58.3438 16.0648 58.5869 15.1566 58.5869 13.9905C58.5869 12.9476 58.3379 12.1038 57.8398 11.4593C57.3477 10.8089 56.6914 10.4837 55.8711 10.4837C55.0684 10.4837 54.4209 10.803 53.9287 11.4417C53.4365 12.0804 53.1904 12.9944 53.1904 14.1839ZM66.8486 10.7825C66.6025 10.7415 66.3359 10.721 66.0488 10.721C64.9824 10.721 64.2588 11.1751 63.8779 12.0833V18.8333H62.252V9.32355H63.834L63.8604 10.4222C64.3936 9.57257 65.1494 9.14777 66.1279 9.14777C66.4443 9.14777 66.6846 9.18878 66.8486 9.27081V10.7825ZM69.8809 9.32355L69.9248 10.3782C70.6221 9.55792 71.5625 9.14777 72.7461 9.14777C74.0762 9.14777 74.9814 9.65753 75.4619 10.6771C75.7783 10.22 76.1885 9.85089 76.6924 9.56964C77.2021 9.28839 77.8027 9.14777 78.4941 9.14777C80.5801 9.14777 81.6406 10.2523 81.6758 12.4612V18.8333H80.0498V12.5579C80.0498 11.8782 79.8945 11.3714 79.584 11.0374C79.2734 10.6976 78.752 10.5276 78.0195 10.5276C77.416 10.5276 76.915 10.7093 76.5166 11.0726C76.1182 11.43 75.8867 11.9134 75.8223 12.5228V18.8333H74.1875V12.6019C74.1875 11.2191 73.5107 10.5276 72.1572 10.5276C71.0908 10.5276 70.3613 10.9818 69.9688 11.89V18.8333H68.3428V9.32355H69.8809Z" fill="white"/>
</svg>
