<svg width="126" height="20" viewBox="0 0 126 20" fill="none" xmlns="http://www.w3.org/2000/svg">
<path d="M21.75 0.333328H2.25C1.00781 0.333328 0 1.34114 0 2.58333V16.0833C0 17.3255 1.00781 18.3333 2.25 18.3333H21.75C22.9922 18.3333 24 17.3255 24 16.0833V2.58333C24 1.34114 22.9922 0.333328 21.75 0.333328ZM2.25 1.83333H21.75C22.1625 1.83333 22.5 2.17083 22.5 2.58333V4.52395C21.4734 5.39114 20.0063 6.58645 15.4406 10.2099C14.6484 10.838 13.0875 12.3521 12 12.3333C10.9125 12.3521 9.34688 10.838 8.55938 10.2099C3.99375 6.58645 2.52656 5.39114 1.5 4.52395V2.58333C1.5 2.17083 1.8375 1.83333 2.25 1.83333ZM21.75 16.8333H2.25C1.8375 16.8333 1.5 16.4958 1.5 16.0833V6.47395C2.56875 7.35052 4.25625 8.7052 7.62656 11.3818C8.5875 12.1505 10.2844 13.8427 12 13.8333C13.7063 13.8474 15.3891 12.1693 16.3734 11.3818C19.7437 8.7052 21.4312 7.35052 22.5 6.47395V16.0833C22.5 16.4958 22.1625 16.8333 21.75 16.8333Z" fill="white"/>
<path d="M47.665 3.03645L51.8486 13.4779L56.0322 3.03645H58.2207V15.8333H56.5332V10.8499L56.6914 5.47102L52.4902 15.8333H51.1982L47.0059 5.49739L47.1729 10.8499V15.8333H45.4854V3.03645H47.665ZM64.8916 16.0091C63.6025 16.0091 62.5537 15.5872 61.7451 14.7435C60.9365 13.8939 60.5322 12.7601 60.5322 11.3421V11.0433C60.5322 10.0999 60.7109 9.25911 61.0684 8.52083C61.4316 7.77669 61.9355 7.19661 62.5801 6.78059C63.2305 6.35872 63.9336 6.14778 64.6895 6.14778C65.9258 6.14778 66.8867 6.55501 67.5723 7.36946C68.2578 8.18391 68.6006 9.34993 68.6006 10.8675V11.5443H62.1582C62.1816 12.4818 62.4541 13.2406 62.9756 13.8206C63.5029 14.3949 64.1709 14.682 64.9795 14.682C65.5537 14.682 66.04 14.5648 66.4385 14.3304C66.8369 14.096 67.1855 13.7855 67.4844 13.3988L68.4775 14.1722C67.6807 15.3968 66.4854 16.0091 64.8916 16.0091ZM64.6895 7.48372C64.0332 7.48372 63.4824 7.72395 63.0371 8.20442C62.5918 8.67903 62.3164 9.347 62.2109 10.2083H66.9746V10.0853C66.9277 9.25911 66.7051 8.62044 66.3066 8.16927C65.9082 7.71223 65.3691 7.48372 64.6895 7.48372ZM76.0273 13.3109C76.0273 12.8714 75.8604 12.5316 75.5264 12.2913C75.1982 12.0452 74.6211 11.8343 73.7949 11.6585C72.9746 11.4827 72.3213 11.2718 71.835 11.0257C71.3545 10.7796 70.9971 10.4866 70.7627 10.1468C70.5342 9.80696 70.4199 9.40266 70.4199 8.93391C70.4199 8.15462 70.748 7.49544 71.4043 6.95638C72.0664 6.41731 72.9102 6.14778 73.9355 6.14778C75.0137 6.14778 75.8867 6.4261 76.5547 6.98274C77.2285 7.53938 77.5654 8.2513 77.5654 9.11848H75.9307C75.9307 8.67317 75.7402 8.28938 75.3594 7.96712C74.9844 7.64485 74.5098 7.48372 73.9355 7.48372C73.3438 7.48372 72.8809 7.61263 72.5469 7.87044C72.2129 8.12825 72.0459 8.46516 72.0459 8.88118C72.0459 9.27376 72.2012 9.56966 72.5117 9.76888C72.8223 9.96809 73.3818 10.1585 74.1904 10.3402C75.0049 10.5218 75.6641 10.7386 76.168 10.9906C76.6719 11.2425 77.0439 11.5472 77.2842 11.9046C77.5303 12.2562 77.6533 12.6868 77.6533 13.1966C77.6533 14.0462 77.3135 14.7288 76.6338 15.2445C75.9541 15.7542 75.0723 16.0091 73.9883 16.0091C73.2266 16.0091 72.5527 15.8743 71.9668 15.6048C71.3809 15.3353 70.9209 14.9603 70.5869 14.4798C70.2588 13.9935 70.0947 13.4691 70.0947 12.9066H71.7207C71.75 13.4515 71.9668 13.8851 72.3711 14.2074C72.7812 14.5238 73.3203 14.682 73.9883 14.682C74.6035 14.682 75.0957 14.5589 75.4648 14.3128C75.8398 14.0609 76.0273 13.7269 76.0273 13.3109ZM85.3086 13.3109C85.3086 12.8714 85.1416 12.5316 84.8076 12.2913C84.4795 12.0452 83.9023 11.8343 83.0762 11.6585C82.2559 11.4827 81.6025 11.2718 81.1162 11.0257C80.6357 10.7796 80.2783 10.4866 80.0439 10.1468C79.8154 9.80696 79.7012 9.40266 79.7012 8.93391C79.7012 8.15462 80.0293 7.49544 80.6855 6.95638C81.3477 6.41731 82.1914 6.14778 83.2168 6.14778C84.2949 6.14778 85.168 6.4261 85.8359 6.98274C86.5098 7.53938 86.8467 8.2513 86.8467 9.11848H85.2119C85.2119 8.67317 85.0215 8.28938 84.6406 7.96712C84.2656 7.64485 83.791 7.48372 83.2168 7.48372C82.625 7.48372 82.1621 7.61263 81.8281 7.87044C81.4941 8.12825 81.3271 8.46516 81.3271 8.88118C81.3271 9.27376 81.4824 9.56966 81.793 9.76888C82.1035 9.96809 82.6631 10.1585 83.4717 10.3402C84.2861 10.5218 84.9453 10.7386 85.4492 10.9906C85.9531 11.2425 86.3252 11.5472 86.5654 11.9046C86.8115 12.2562 86.9346 12.6868 86.9346 13.1966C86.9346 14.0462 86.5947 14.7288 85.915 15.2445C85.2354 15.7542 84.3535 16.0091 83.2695 16.0091C82.5078 16.0091 81.834 15.8743 81.248 15.6048C80.6621 15.3353 80.2021 14.9603 79.8682 14.4798C79.54 13.9935 79.376 13.4691 79.376 12.9066H81.002C81.0312 13.4515 81.248 13.8851 81.6523 14.2074C82.0625 14.5238 82.6016 14.682 83.2695 14.682C83.8848 14.682 84.377 14.5589 84.7461 14.3128C85.1211 14.0609 85.3086 13.7269 85.3086 13.3109ZM94.9238 15.8333C94.8301 15.6458 94.7539 15.3118 94.6953 14.8314C93.9395 15.6165 93.0371 16.0091 91.9883 16.0091C91.0508 16.0091 90.2803 15.7454 89.6768 15.2181C89.0791 14.6849 88.7803 14.0111 88.7803 13.1966C88.7803 12.2064 89.1553 11.4388 89.9053 10.8939C90.6611 10.3431 91.7217 10.0677 93.0869 10.0677H94.6689V9.32063C94.6689 8.75227 94.499 8.3011 94.1592 7.96712C93.8193 7.62727 93.3184 7.45735 92.6562 7.45735C92.0762 7.45735 91.5898 7.60384 91.1973 7.8968C90.8047 8.18977 90.6084 8.54427 90.6084 8.96028H88.9736C88.9736 8.48567 89.1406 8.02864 89.4746 7.58919C89.8145 7.14388 90.2715 6.79231 90.8457 6.5345C91.4258 6.27669 92.0615 6.14778 92.7529 6.14778C93.8486 6.14778 94.707 6.42317 95.3281 6.97395C95.9492 7.51888 96.2715 8.2718 96.2949 9.23274V13.6097C96.2949 14.4827 96.4062 15.1771 96.6289 15.6927V15.8333H94.9238ZM92.2256 14.5941C92.7354 14.5941 93.2188 14.4622 93.6758 14.1986C94.1328 13.9349 94.4639 13.5921 94.6689 13.1702V11.2191H93.3945C91.4023 11.2191 90.4062 11.8021 90.4062 12.9681C90.4062 13.4779 90.5762 13.8763 90.916 14.1634C91.2559 14.4505 91.6924 14.5941 92.2256 14.5941ZM98.457 10.9993C98.457 9.51692 98.7998 8.33919 99.4854 7.46614C100.171 6.58723 101.079 6.14778 102.21 6.14778C103.37 6.14778 104.275 6.55794 104.926 7.37825L105.005 6.32356H106.49V15.6048C106.49 16.8353 106.124 17.805 105.392 18.514C104.665 19.223 103.687 19.5775 102.456 19.5775C101.771 19.5775 101.1 19.431 100.443 19.138C99.7871 18.845 99.2861 18.4437 98.9404 17.9339L99.7842 16.9583C100.481 17.8197 101.334 18.2503 102.342 18.2503C103.133 18.2503 103.748 18.0277 104.188 17.5824C104.633 17.137 104.855 16.5101 104.855 15.7015V14.8841C104.205 15.6341 103.317 16.0091 102.192 16.0091C101.079 16.0091 100.177 15.5609 99.4854 14.6644C98.7998 13.7679 98.457 12.5462 98.457 10.9993ZM100.092 11.1839C100.092 12.2562 100.312 13.0999 100.751 13.7152C101.19 14.3245 101.806 14.6292 102.597 14.6292C103.622 14.6292 104.375 14.1634 104.855 13.2318V8.88997C104.357 7.98177 103.61 7.52766 102.614 7.52766C101.823 7.52766 101.205 7.83528 100.76 8.45052C100.314 9.06575 100.092 9.97688 100.092 11.1839ZM112.897 16.0091C111.608 16.0091 110.56 15.5872 109.751 14.7435C108.942 13.8939 108.538 12.7601 108.538 11.3421V11.0433C108.538 10.0999 108.717 9.25911 109.074 8.52083C109.438 7.77669 109.941 7.19661 110.586 6.78059C111.236 6.35872 111.939 6.14778 112.695 6.14778C113.932 6.14778 114.893 6.55501 115.578 7.36946C116.264 8.18391 116.606 9.34993 116.606 10.8675V11.5443H110.164C110.188 12.4818 110.46 13.2406 110.981 13.8206C111.509 14.3949 112.177 14.682 112.985 14.682C113.56 14.682 114.046 14.5648 114.444 14.3304C114.843 14.096 115.191 13.7855 115.49 13.3988L116.483 14.1722C115.687 15.3968 114.491 16.0091 112.897 16.0091ZM112.695 7.48372C112.039 7.48372 111.488 7.72395 111.043 8.20442C110.598 8.67903 110.322 9.347 110.217 10.2083H114.98V10.0853C114.934 9.25911 114.711 8.62044 114.312 8.16927C113.914 7.71223 113.375 7.48372 112.695 7.48372ZM124.033 13.3109C124.033 12.8714 123.866 12.5316 123.532 12.2913C123.204 12.0452 122.627 11.8343 121.801 11.6585C120.98 11.4827 120.327 11.2718 119.841 11.0257C119.36 10.7796 119.003 10.4866 118.769 10.1468C118.54 9.80696 118.426 9.40266 118.426 8.93391C118.426 8.15462 118.754 7.49544 119.41 6.95638C120.072 6.41731 120.916 6.14778 121.941 6.14778C123.02 6.14778 123.893 6.4261 124.561 6.98274C125.234 7.53938 125.571 8.2513 125.571 9.11848H123.937C123.937 8.67317 123.746 8.28938 123.365 7.96712C122.99 7.64485 122.516 7.48372 121.941 7.48372C121.35 7.48372 120.887 7.61263 120.553 7.87044C120.219 8.12825 120.052 8.46516 120.052 8.88118C120.052 9.27376 120.207 9.56966 120.518 9.76888C120.828 9.96809 121.388 10.1585 122.196 10.3402C123.011 10.5218 123.67 10.7386 124.174 10.9906C124.678 11.2425 125.05 11.5472 125.29 11.9046C125.536 12.2562 125.659 12.6868 125.659 13.1966C125.659 14.0462 125.319 14.7288 124.64 15.2445C123.96 15.7542 123.078 16.0091 121.994 16.0091C121.232 16.0091 120.559 15.8743 119.973 15.6048C119.387 15.3353 118.927 14.9603 118.593 14.4798C118.265 13.9935 118.101 13.4691 118.101 12.9066H119.727C119.756 13.4515 119.973 13.8851 120.377 14.2074C120.787 14.5238 121.326 14.682 121.994 14.682C122.609 14.682 123.102 14.5589 123.471 14.3128C123.846 14.0609 124.033 13.7269 124.033 13.3109Z" fill="white"/>
</svg>
