<svg width="157" height="25" viewBox="0 0 157 25" fill="none" xmlns="http://www.w3.org/2000/svg">
<path d="M21.1875 20.9167C21.1875 21.4323 20.7656 21.8542 20.25 21.8542C19.7344 21.8542 19.3125 21.4323 19.3125 20.9167C19.3125 20.401 19.7344 19.9792 20.25 19.9792C20.7656 19.9792 21.1875 20.401 21.1875 20.9167ZM17.25 19.9792C16.7344 19.9792 16.3125 20.401 16.3125 20.9167C16.3125 21.4323 16.7344 21.8542 17.25 21.8542C17.7656 21.8542 18.1875 21.4323 18.1875 20.9167C18.1875 20.401 17.7656 19.9792 17.25 19.9792ZM24 17.7292V22.6042C24 23.7432 23.0766 24.6667 21.9375 24.6667H2.0625C0.923438 24.6667 0 23.7432 0 22.6042V17.7292C0 16.5901 0.923438 15.6667 2.0625 15.6667H6.72187L4.07812 13.0229C2.89687 11.8417 3.73594 9.82134 5.40469 9.82134H7.875V2.54166C7.875 1.50572 8.71406 0.666656 9.75 0.666656H14.25C15.2859 0.666656 16.125 1.50572 16.125 2.54166V9.82134H18.5953C20.2641 9.82134 21.0984 11.8417 19.9219 13.0229L17.2781 15.6667H21.9375C23.0766 15.6667 24 16.5901 24 17.7292ZM11.7328 18.5588C11.8781 18.7042 12.1172 18.7042 12.2625 18.5588L18.8578 11.9635C19.0922 11.7292 18.9281 11.3213 18.5906 11.3213H14.625V2.54166C14.625 2.33541 14.4563 2.16666 14.25 2.16666H9.75C9.54375 2.16666 9.375 2.33541 9.375 2.54166V11.3213H5.40469C5.07188 11.3213 4.90312 11.7245 5.1375 11.9635L11.7328 18.5588ZM22.5 17.7292C22.5 17.4198 22.2469 17.1667 21.9375 17.1667H15.7781L13.3266 19.6182C12.5953 20.3495 11.4047 20.3495 10.6734 19.6182L8.22187 17.1667H2.0625C1.75312 17.1667 1.5 17.4198 1.5 17.7292V22.6042C1.5 22.9135 1.75312 23.1667 2.0625 23.1667H21.9375C22.2469 23.1667 22.5 22.9135 22.5 22.6042V17.7292Z" fill="white"/>
<path d="M45.4854 19.1667V6.36978H49.0977C50.2109 6.36978 51.1953 6.61588 52.0508 7.10806C52.9062 7.60025 53.5654 8.30045 54.0283 9.20865C54.4971 10.1169 54.7344 11.1598 54.7402 12.3376V13.1549C54.7402 14.362 54.5059 15.4196 54.0371 16.3278C53.5742 17.236 52.9092 17.9333 52.042 18.4196C51.1807 18.9059 50.1758 19.1549 49.0273 19.1667H45.4854ZM47.1729 7.75845V17.7868H48.9482C50.249 17.7868 51.2598 17.3825 51.9805 16.5739C52.707 15.7653 53.0703 14.6139 53.0703 13.1198V12.3727C53.0703 10.9196 52.7275 9.79166 52.042 8.98892C51.3623 8.18033 50.3955 7.77017 49.1416 7.75845H47.1729ZM56.6123 14.3239C56.6123 13.3922 56.7939 12.5544 57.1572 11.8102C57.5264 11.0661 58.0361 10.4919 58.6865 10.0876C59.3428 9.68326 60.0898 9.48111 60.9277 9.48111C62.2227 9.48111 63.2686 9.92935 64.0654 10.8258C64.8682 11.7223 65.2695 12.9147 65.2695 14.403V14.5172C65.2695 15.443 65.0908 16.2751 64.7334 17.0133C64.3818 17.7458 63.875 18.317 63.2129 18.7272C62.5566 19.1374 61.8008 19.3424 60.9453 19.3424C59.6562 19.3424 58.6104 18.8942 57.8076 17.9977C57.0107 17.1012 56.6123 15.9147 56.6123 14.4381V14.3239ZM58.2471 14.5172C58.2471 15.5719 58.4902 16.4186 58.9766 17.0573C59.4688 17.696 60.125 18.0153 60.9453 18.0153C61.7715 18.0153 62.4277 17.693 62.9141 17.0485C63.4004 16.3981 63.6436 15.4899 63.6436 14.3239C63.6436 13.2809 63.3945 12.4372 62.8965 11.7926C62.4043 11.1422 61.748 10.817 60.9277 10.817C60.125 10.817 59.4775 11.1364 58.9854 11.7751C58.4932 12.4137 58.2471 13.3278 58.2471 14.5172ZM75.7285 16.9254L77.5566 9.65689H79.1826L76.4141 19.1667H75.0957L72.7842 11.9596L70.5342 19.1667H69.2158L66.4561 9.65689H68.0732L69.9453 16.776L72.1602 9.65689H73.4697L75.7285 16.9254ZM82.3818 9.65689L82.4346 10.8522C83.1611 9.93814 84.1104 9.48111 85.2822 9.48111C87.292 9.48111 88.3057 10.6149 88.3232 12.8825V19.1667H86.6973V12.8737C86.6914 12.1881 86.5332 11.6813 86.2227 11.3532C85.918 11.0251 85.4404 10.861 84.79 10.861C84.2627 10.861 83.7998 11.0016 83.4014 11.2829C83.0029 11.5641 82.6924 11.9333 82.4697 12.3903V19.1667H80.8438V9.65689H82.3818ZM92.542 19.1667H90.916V5.66666H92.542V19.1667ZM94.7217 14.3239C94.7217 13.3922 94.9033 12.5544 95.2666 11.8102C95.6357 11.0661 96.1455 10.4919 96.7959 10.0876C97.4521 9.68326 98.1992 9.48111 99.0371 9.48111C100.332 9.48111 101.378 9.92935 102.175 10.8258C102.978 11.7223 103.379 12.9147 103.379 14.403V14.5172C103.379 15.443 103.2 16.2751 102.843 17.0133C102.491 17.7458 101.984 18.317 101.322 18.7272C100.666 19.1374 99.9102 19.3424 99.0547 19.3424C97.7656 19.3424 96.7197 18.8942 95.917 17.9977C95.1201 17.1012 94.7217 15.9147 94.7217 14.4381V14.3239ZM96.3564 14.5172C96.3564 15.5719 96.5996 16.4186 97.0859 17.0573C97.5781 17.696 98.2344 18.0153 99.0547 18.0153C99.8809 18.0153 100.537 17.693 101.023 17.0485C101.51 16.3981 101.753 15.4899 101.753 14.3239C101.753 13.2809 101.504 12.4372 101.006 11.7926C100.514 11.1422 99.8574 10.817 99.0371 10.817C98.2344 10.817 97.5869 11.1364 97.0947 11.7751C96.6025 12.4137 96.3564 13.3278 96.3564 14.5172ZM111.289 19.1667C111.195 18.9792 111.119 18.6452 111.061 18.1647C110.305 18.9499 109.402 19.3424 108.354 19.3424C107.416 19.3424 106.646 19.0788 106.042 18.5514C105.444 18.0182 105.146 17.3444 105.146 16.5299C105.146 15.5397 105.521 14.7721 106.271 14.2272C107.026 13.6764 108.087 13.401 109.452 13.401H111.034V12.654C111.034 12.0856 110.864 11.6344 110.524 11.3004C110.185 10.9606 109.684 10.7907 109.021 10.7907C108.441 10.7907 107.955 10.9372 107.562 11.2301C107.17 11.5231 106.974 11.8776 106.974 12.2936H105.339C105.339 11.819 105.506 11.362 105.84 10.9225C106.18 10.4772 106.637 10.1256 107.211 9.86783C107.791 9.61002 108.427 9.48111 109.118 9.48111C110.214 9.48111 111.072 9.7565 111.693 10.3073C112.314 10.8522 112.637 11.6051 112.66 12.5661V16.943C112.66 17.8161 112.771 18.5104 112.994 19.026V19.1667H111.289ZM108.591 17.9274C109.101 17.9274 109.584 17.7956 110.041 17.5319C110.498 17.2682 110.829 16.9254 111.034 16.5036V14.5524H109.76C107.768 14.5524 106.771 15.1354 106.771 16.3014C106.771 16.8112 106.941 17.2096 107.281 17.4967C107.621 17.7838 108.058 17.9274 108.591 17.9274ZM114.813 14.3327C114.813 12.8737 115.159 11.7018 115.851 10.817C116.542 9.92642 117.447 9.48111 118.566 9.48111C119.68 9.48111 120.562 9.86197 121.212 10.6237V5.66666H122.838V19.1667H121.344L121.265 18.1471C120.614 18.944 119.709 19.3424 118.549 19.3424C117.447 19.3424 116.548 18.8913 115.851 17.9889C115.159 17.0866 114.813 15.9088 114.813 14.4557V14.3327ZM116.439 14.5172C116.439 15.5954 116.662 16.4391 117.107 17.0485C117.553 17.6579 118.168 17.9626 118.953 17.9626C119.984 17.9626 120.737 17.4997 121.212 16.5739V12.2057C120.726 11.3092 119.979 10.861 118.971 10.861C118.174 10.861 117.553 11.1686 117.107 11.7838C116.662 12.3991 116.439 13.3102 116.439 14.5172ZM137.146 13.5153H131.776V19.1667H130.089V6.36978H138.017V7.75845H131.776V12.1354H137.146V13.5153ZM141.55 19.1667H139.924V9.65689H141.55V19.1667ZM139.792 7.13443C139.792 6.87076 139.871 6.6481 140.029 6.46646C140.193 6.28482 140.434 6.194 140.75 6.194C141.066 6.194 141.307 6.28482 141.471 6.46646C141.635 6.6481 141.717 6.87076 141.717 7.13443C141.717 7.3981 141.635 7.61783 141.471 7.79361C141.307 7.96939 141.066 8.05728 140.75 8.05728C140.434 8.05728 140.193 7.96939 140.029 7.79361C139.871 7.61783 139.792 7.3981 139.792 7.13443ZM145.927 19.1667H144.301V5.66666H145.927V19.1667ZM152.483 19.3424C151.194 19.3424 150.146 18.9206 149.337 18.0768C148.528 17.2272 148.124 16.0934 148.124 14.6754V14.3766C148.124 13.4333 148.303 12.5924 148.66 11.8542C149.023 11.11 149.527 10.5299 150.172 10.1139C150.822 9.69205 151.525 9.48111 152.281 9.48111C153.518 9.48111 154.479 9.88834 155.164 10.7028C155.85 11.5172 156.192 12.6833 156.192 14.2008V14.8776H149.75C149.773 15.8151 150.046 16.5739 150.567 17.154C151.095 17.7282 151.763 18.0153 152.571 18.0153C153.146 18.0153 153.632 17.8981 154.03 17.6637C154.429 17.4294 154.777 17.1188 155.076 16.7321L156.069 17.5055C155.272 18.7301 154.077 19.3424 152.483 19.3424ZM152.281 10.817C151.625 10.817 151.074 11.0573 150.629 11.5378C150.184 12.0124 149.908 12.6803 149.803 13.5417H154.566V13.4186C154.52 12.5924 154.297 11.9538 153.898 11.5026C153.5 11.0456 152.961 10.817 152.281 10.817Z" fill="white"/>
</svg>
