<svg width="163" height="24" viewBox="0 0 163 24" fill="none" xmlns="http://www.w3.org/2000/svg">
<path d="M17.25 16.882V18.3291C20.1689 18.7237 22.125 19.4353 22.125 20.2505C22.125 21.4931 17.5917 22.5005 12 22.5005C6.40828 22.5005 1.875 21.4927 1.875 20.25C1.875 19.4353 3.83109 18.7238 6.75 18.3286V16.8816C2.75719 17.4909 0 18.7683 0 20.25C0 22.3209 5.37281 24 12 24C18.6272 24 24 22.3209 24 20.25C24 18.7683 21.2428 17.4909 17.25 16.882ZM8.25 15V18.75C8.25 19.9908 9.25922 21 10.5 21H13.5C14.7408 21 15.75 19.9908 15.75 18.75V15C16.9908 15 18 13.9908 18 12.75V9.75C18 8.13141 16.9636 6.76172 15.5241 6.23766C15.8972 5.6175 16.125 4.90031 16.125 4.125C16.125 1.85063 14.2744 0 12 0C9.72563 0 7.875 1.85063 7.875 4.125C7.875 4.90031 8.10281 5.6175 8.47594 6.23766C7.03641 6.76172 6 8.13141 6 9.75V12.75C6 13.9908 7.00922 15 8.25 15ZM12 1.5C13.4498 1.5 14.625 2.67516 14.625 4.125C14.625 5.57484 13.4498 6.75 12 6.75C10.5502 6.75 9.375 5.57484 9.375 4.125C9.375 2.67516 10.5502 1.5 12 1.5ZM7.5 9.75C7.5 8.5425 8.45813 7.56188 9.65297 7.50984C10.3205 7.97391 11.1272 8.25 12 8.25C12.8728 8.25 13.6795 7.97391 14.347 7.50984C15.5419 7.56188 16.5 8.5425 16.5 9.75V12.75C16.5 13.1639 16.163 13.5 15.75 13.5H14.25V18.75C14.25 19.1639 13.913 19.5 13.5 19.5H10.5C10.087 19.5 9.75 19.1639 9.75 18.75V13.5H8.25C7.83703 13.5 7.5 13.1639 7.5 12.75V9.75Z" fill="white"/>
<path d="M50.1787 13.3232H47.1729V18.5H45.4766V5.70312H49.7129C51.1543 5.70312 52.2617 6.03125 53.0352 6.6875C53.8145 7.34375 54.2041 8.29883 54.2041 9.55273C54.2041 10.3496 53.9873 11.0439 53.5537 11.6357C53.126 12.2275 52.5283 12.6699 51.7607 12.9629L54.7666 18.3945V18.5H52.9561L50.1787 13.3232ZM47.1729 11.9434H49.7656C50.6035 11.9434 51.2686 11.7266 51.7607 11.293C52.2588 10.8594 52.5078 10.2793 52.5078 9.55273C52.5078 8.76172 52.2705 8.15527 51.7959 7.7334C51.3271 7.31152 50.6475 7.09766 49.7568 7.0918H47.1729V11.9434ZM60.2686 18.6758C58.9795 18.6758 57.9307 18.2539 57.1221 17.4102C56.3135 16.5605 55.9092 15.4268 55.9092 14.0088V13.71C55.9092 12.7666 56.0879 11.9258 56.4453 11.1875C56.8086 10.4434 57.3125 9.86328 57.957 9.44727C58.6074 9.02539 59.3105 8.81445 60.0664 8.81445C61.3027 8.81445 62.2637 9.22168 62.9492 10.0361C63.6348 10.8506 63.9775 12.0166 63.9775 13.5342V14.2109H57.5352C57.5586 15.1484 57.8311 15.9072 58.3525 16.4873C58.8799 17.0615 59.5479 17.3486 60.3564 17.3486C60.9307 17.3486 61.417 17.2314 61.8154 16.9971C62.2139 16.7627 62.5625 16.4521 62.8613 16.0654L63.8545 16.8389C63.0576 18.0635 61.8623 18.6758 60.2686 18.6758ZM60.0664 10.1504C59.4102 10.1504 58.8594 10.3906 58.4141 10.8711C57.9688 11.3457 57.6934 12.0137 57.5879 12.875H62.3516V12.752C62.3047 11.9258 62.082 11.2871 61.6836 10.8359C61.2852 10.3789 60.7461 10.1504 60.0664 10.1504ZM73.9004 13.8506C73.9004 15.2979 73.5693 16.4639 72.9072 17.3486C72.2451 18.2334 71.3486 18.6758 70.2178 18.6758C69.0635 18.6758 68.1553 18.3096 67.4932 17.5771V22.1562H65.8672V8.99023H67.3525L67.4316 10.0449C68.0938 9.22461 69.0137 8.81445 70.1914 8.81445C71.334 8.81445 72.2363 9.24512 72.8984 10.1064C73.5664 10.9678 73.9004 12.166 73.9004 13.7012V13.8506ZM72.2744 13.666C72.2744 12.5938 72.0459 11.7471 71.5889 11.126C71.1318 10.5049 70.5049 10.1943 69.708 10.1943C68.7236 10.1943 67.9854 10.6309 67.4932 11.5039V16.0479C67.9795 16.915 68.7236 17.3486 69.7256 17.3486C70.5049 17.3486 71.123 17.041 71.5801 16.4258C72.043 15.8047 72.2744 14.8848 72.2744 13.666ZM80.5713 10.4492C80.3252 10.4082 80.0586 10.3877 79.7715 10.3877C78.7051 10.3877 77.9814 10.8418 77.6006 11.75V18.5H75.9746V8.99023H77.5566L77.583 10.0889C78.1162 9.23926 78.8721 8.81445 79.8506 8.81445C80.167 8.81445 80.4072 8.85547 80.5713 8.9375V10.4492ZM85.8447 18.6758C84.5557 18.6758 83.5068 18.2539 82.6982 17.4102C81.8896 16.5605 81.4854 15.4268 81.4854 14.0088V13.71C81.4854 12.7666 81.6641 11.9258 82.0215 11.1875C82.3848 10.4434 82.8887 9.86328 83.5332 9.44727C84.1836 9.02539 84.8867 8.81445 85.6426 8.81445C86.8789 8.81445 87.8398 9.22168 88.5254 10.0361C89.2109 10.8506 89.5537 12.0166 89.5537 13.5342V14.2109H83.1113C83.1348 15.1484 83.4072 15.9072 83.9287 16.4873C84.4561 17.0615 85.124 17.3486 85.9326 17.3486C86.5068 17.3486 86.9932 17.2314 87.3916 16.9971C87.79 16.7627 88.1387 16.4521 88.4375 16.0654L89.4307 16.8389C88.6338 18.0635 87.4385 18.6758 85.8447 18.6758ZM85.6426 10.1504C84.9863 10.1504 84.4355 10.3906 83.9902 10.8711C83.5449 11.3457 83.2695 12.0137 83.1641 12.875H87.9277V12.752C87.8809 11.9258 87.6582 11.2871 87.2598 10.8359C86.8613 10.3789 86.3223 10.1504 85.6426 10.1504ZM96.9805 15.9775C96.9805 15.5381 96.8135 15.1982 96.4795 14.958C96.1514 14.7119 95.5742 14.501 94.748 14.3252C93.9277 14.1494 93.2744 13.9385 92.7881 13.6924C92.3076 13.4463 91.9502 13.1533 91.7158 12.8135C91.4873 12.4736 91.373 12.0693 91.373 11.6006C91.373 10.8213 91.7012 10.1621 92.3574 9.62305C93.0195 9.08398 93.8633 8.81445 94.8887 8.81445C95.9668 8.81445 96.8398 9.09277 97.5078 9.64941C98.1816 10.2061 98.5186 10.918 98.5186 11.7852H96.8838C96.8838 11.3398 96.6934 10.9561 96.3125 10.6338C95.9375 10.3115 95.4629 10.1504 94.8887 10.1504C94.2969 10.1504 93.834 10.2793 93.5 10.5371C93.166 10.7949 92.999 11.1318 92.999 11.5479C92.999 11.9404 93.1543 12.2363 93.4648 12.4355C93.7754 12.6348 94.335 12.8252 95.1436 13.0068C95.958 13.1885 96.6172 13.4053 97.1211 13.6572C97.625 13.9092 97.9971 14.2139 98.2373 14.5713C98.4834 14.9229 98.6064 15.3535 98.6064 15.8633C98.6064 16.7129 98.2666 17.3955 97.5869 17.9111C96.9072 18.4209 96.0254 18.6758 94.9414 18.6758C94.1797 18.6758 93.5059 18.541 92.9199 18.2715C92.334 18.002 91.874 17.627 91.54 17.1465C91.2119 16.6602 91.0479 16.1357 91.0479 15.5732H92.6738C92.7031 16.1182 92.9199 16.5518 93.3242 16.874C93.7344 17.1904 94.2734 17.3486 94.9414 17.3486C95.5566 17.3486 96.0488 17.2256 96.418 16.9795C96.793 16.7275 96.9805 16.3936 96.9805 15.9775ZM104.671 18.6758C103.382 18.6758 102.333 18.2539 101.524 17.4102C100.716 16.5605 100.312 15.4268 100.312 14.0088V13.71C100.312 12.7666 100.49 11.9258 100.848 11.1875C101.211 10.4434 101.715 9.86328 102.359 9.44727C103.01 9.02539 103.713 8.81445 104.469 8.81445C105.705 8.81445 106.666 9.22168 107.352 10.0361C108.037 10.8506 108.38 12.0166 108.38 13.5342V14.2109H101.938C101.961 15.1484 102.233 15.9072 102.755 16.4873C103.282 17.0615 103.95 17.3486 104.759 17.3486C105.333 17.3486 105.819 17.2314 106.218 16.9971C106.616 16.7627 106.965 16.4521 107.264 16.0654L108.257 16.8389C107.46 18.0635 106.265 18.6758 104.671 18.6758ZM104.469 10.1504C103.812 10.1504 103.262 10.3906 102.816 10.8711C102.371 11.3457 102.096 12.0137 101.99 12.875H106.754V12.752C106.707 11.9258 106.484 11.2871 106.086 10.8359C105.688 10.3789 105.148 10.1504 104.469 10.1504ZM111.808 8.99023L111.86 10.1855C112.587 9.27148 113.536 8.81445 114.708 8.81445C116.718 8.81445 117.731 9.94824 117.749 12.2158V18.5H116.123V12.207C116.117 11.5215 115.959 11.0146 115.648 10.6865C115.344 10.3584 114.866 10.1943 114.216 10.1943C113.688 10.1943 113.226 10.335 112.827 10.6162C112.429 10.8975 112.118 11.2666 111.896 11.7236V18.5H110.27V8.99023H111.808ZM122.407 6.6875V8.99023H124.183V10.2471H122.407V16.1445C122.407 16.5254 122.486 16.8125 122.645 17.0059C122.803 17.1934 123.072 17.2871 123.453 17.2871C123.641 17.2871 123.898 17.252 124.227 17.1816V18.5C123.799 18.6172 123.383 18.6758 122.979 18.6758C122.252 18.6758 121.704 18.4561 121.335 18.0166C120.966 17.5771 120.781 16.9531 120.781 16.1445V10.2471H119.05V8.99023H120.781V6.6875H122.407ZM131.961 18.5C131.867 18.3125 131.791 17.9785 131.732 17.498C130.977 18.2832 130.074 18.6758 129.025 18.6758C128.088 18.6758 127.317 18.4121 126.714 17.8848C126.116 17.3516 125.817 16.6777 125.817 15.8633C125.817 14.873 126.192 14.1055 126.942 13.5605C127.698 13.0098 128.759 12.7344 130.124 12.7344H131.706V11.9873C131.706 11.4189 131.536 10.9678 131.196 10.6338C130.856 10.2939 130.355 10.124 129.693 10.124C129.113 10.124 128.627 10.2705 128.234 10.5635C127.842 10.8564 127.646 11.2109 127.646 11.627H126.011C126.011 11.1523 126.178 10.6953 126.512 10.2559C126.852 9.81055 127.309 9.45898 127.883 9.20117C128.463 8.94336 129.099 8.81445 129.79 8.81445C130.886 8.81445 131.744 9.08984 132.365 9.64062C132.986 10.1855 133.309 10.9385 133.332 11.8994V16.2764C133.332 17.1494 133.443 17.8438 133.666 18.3594V18.5H131.961ZM129.263 17.2607C129.772 17.2607 130.256 17.1289 130.713 16.8652C131.17 16.6016 131.501 16.2588 131.706 15.8369V13.8857H130.432C128.439 13.8857 127.443 14.4688 127.443 15.6348C127.443 16.1445 127.613 16.543 127.953 16.8301C128.293 17.1172 128.729 17.2607 129.263 17.2607ZM138.087 6.6875V8.99023H139.862V10.2471H138.087V16.1445C138.087 16.5254 138.166 16.8125 138.324 17.0059C138.482 17.1934 138.752 17.2871 139.133 17.2871C139.32 17.2871 139.578 17.252 139.906 17.1816V18.5C139.479 18.6172 139.062 18.6758 138.658 18.6758C137.932 18.6758 137.384 18.4561 137.015 18.0166C136.646 17.5771 136.461 16.9531 136.461 16.1445V10.2471H134.729V8.99023H136.461V6.6875H138.087ZM143.536 18.5H141.91V8.99023H143.536V18.5ZM141.778 6.46777C141.778 6.2041 141.857 5.98145 142.016 5.7998C142.18 5.61816 142.42 5.52734 142.736 5.52734C143.053 5.52734 143.293 5.61816 143.457 5.7998C143.621 5.98145 143.703 6.2041 143.703 6.46777C143.703 6.73145 143.621 6.95117 143.457 7.12695C143.293 7.30273 143.053 7.39062 142.736 7.39062C142.42 7.39062 142.18 7.30273 142.016 7.12695C141.857 6.95117 141.778 6.73145 141.778 6.46777ZM149.284 16.2939L151.64 8.99023H153.301L149.891 18.5H148.651L145.206 8.99023H146.867L149.284 16.2939ZM158.688 18.6758C157.399 18.6758 156.351 18.2539 155.542 17.4102C154.733 16.5605 154.329 15.4268 154.329 14.0088V13.71C154.329 12.7666 154.508 11.9258 154.865 11.1875C155.229 10.4434 155.732 9.86328 156.377 9.44727C157.027 9.02539 157.73 8.81445 158.486 8.81445C159.723 8.81445 160.684 9.22168 161.369 10.0361C162.055 10.8506 162.397 12.0166 162.397 13.5342V14.2109H155.955C155.979 15.1484 156.251 15.9072 156.772 16.4873C157.3 17.0615 157.968 17.3486 158.776 17.3486C159.351 17.3486 159.837 17.2314 160.235 16.9971C160.634 16.7627 160.982 16.4521 161.281 16.0654L162.274 16.8389C161.478 18.0635 160.282 18.6758 158.688 18.6758ZM158.486 10.1504C157.83 10.1504 157.279 10.3906 156.834 10.8711C156.389 11.3457 156.113 12.0137 156.008 12.875H160.771V12.752C160.725 11.9258 160.502 11.2871 160.104 10.8359C159.705 10.3789 159.166 10.1504 158.486 10.1504Z" fill="white"/>
</svg>
