<svg width="129" height="22" viewBox="0 0 129 22" fill="none" xmlns="http://www.w3.org/2000/svg">
<path d="M1.41667 9.33333H7.66667M7.66667 9.33333H20.5833M7.66667 9.33333V20.5833M4.33333 21H17.6667C19.5076 21 21 19.5076 21 17.6667V4.33333C21 2.49238 19.5076 1 17.6667 1H4.33333C2.49238 1 1 2.49238 1 4.33333V17.6667C1 19.5076 2.49238 21 4.33333 21Z" stroke="white" stroke-width="2"/>
<path d="M44.4854 17.5V4.70312H48.0977C49.2109 4.70312 50.1953 4.94922 51.0508 5.44141C51.9062 5.93359 52.5654 6.63379 53.0283 7.54199C53.4971 8.4502 53.7344 9.49316 53.7402 10.6709V11.4883C53.7402 12.6953 53.5059 13.7529 53.0371 14.6611C52.5742 15.5693 51.9092 16.2666 51.042 16.7529C50.1807 17.2393 49.1758 17.4883 48.0273 17.5H44.4854ZM46.1729 6.0918V16.1201H47.9482C49.249 16.1201 50.2598 15.7158 50.9805 14.9072C51.707 14.0986 52.0703 12.9473 52.0703 11.4531V10.7061C52.0703 9.25293 51.7275 8.125 51.042 7.32227C50.3623 6.51367 49.3955 6.10352 48.1416 6.0918H46.1729ZM61.9141 17.5C61.8203 17.3125 61.7441 16.9785 61.6855 16.498C60.9297 17.2832 60.0273 17.6758 58.9785 17.6758C58.041 17.6758 57.2705 17.4121 56.667 16.8848C56.0693 16.3516 55.7705 15.6777 55.7705 14.8633C55.7705 13.873 56.1455 13.1055 56.8955 12.5605C57.6514 12.0098 58.7119 11.7344 60.0771 11.7344H61.6592V10.9873C61.6592 10.4189 61.4893 9.96777 61.1494 9.63379C60.8096 9.29395 60.3086 9.12402 59.6465 9.12402C59.0664 9.12402 58.5801 9.27051 58.1875 9.56348C57.7949 9.85645 57.5986 10.2109 57.5986 10.627H55.9639C55.9639 10.1523 56.1309 9.69531 56.4648 9.25586C56.8047 8.81055 57.2617 8.45898 57.8359 8.20117C58.416 7.94336 59.0518 7.81445 59.7432 7.81445C60.8389 7.81445 61.6973 8.08984 62.3184 8.64062C62.9395 9.18555 63.2617 9.93848 63.2852 10.8994V15.2764C63.2852 16.1494 63.3965 16.8438 63.6191 17.3594V17.5H61.9141ZM59.2158 16.2607C59.7256 16.2607 60.209 16.1289 60.666 15.8652C61.123 15.6016 61.4541 15.2588 61.6592 14.8369V12.8857H60.3848C58.3926 12.8857 57.3965 13.4688 57.3965 14.6348C57.3965 15.1445 57.5664 15.543 57.9062 15.8301C58.2461 16.1172 58.6826 16.2607 59.2158 16.2607ZM71.3711 14.9775C71.3711 14.5381 71.2041 14.1982 70.8701 13.958C70.542 13.7119 69.9648 13.501 69.1387 13.3252C68.3184 13.1494 67.665 12.9385 67.1787 12.6924C66.6982 12.4463 66.3408 12.1533 66.1064 11.8135C65.8779 11.4736 65.7637 11.0693 65.7637 10.6006C65.7637 9.82129 66.0918 9.16211 66.748 8.62305C67.4102 8.08398 68.2539 7.81445 69.2793 7.81445C70.3574 7.81445 71.2305 8.09277 71.8984 8.64941C72.5723 9.20605 72.9092 9.91797 72.9092 10.7852H71.2744C71.2744 10.3398 71.084 9.95605 70.7031 9.63379C70.3281 9.31152 69.8535 9.15039 69.2793 9.15039C68.6875 9.15039 68.2246 9.2793 67.8906 9.53711C67.5566 9.79492 67.3896 10.1318 67.3896 10.5479C67.3896 10.9404 67.5449 11.2363 67.8555 11.4355C68.166 11.6348 68.7256 11.8252 69.5342 12.0068C70.3486 12.1885 71.0078 12.4053 71.5117 12.6572C72.0156 12.9092 72.3877 13.2139 72.6279 13.5713C72.874 13.9229 72.9971 14.3535 72.9971 14.8633C72.9971 15.7129 72.6572 16.3955 71.9775 16.9111C71.2979 17.4209 70.416 17.6758 69.332 17.6758C68.5703 17.6758 67.8965 17.541 67.3105 17.2715C66.7246 17.002 66.2646 16.627 65.9307 16.1465C65.6025 15.6602 65.4385 15.1357 65.4385 14.5732H67.0645C67.0938 15.1182 67.3105 15.5518 67.7148 15.874C68.125 16.1904 68.6641 16.3486 69.332 16.3486C69.9473 16.3486 70.4395 16.2256 70.8086 15.9795C71.1836 15.7275 71.3711 15.3936 71.3711 14.9775ZM76.7412 9.1416C77.4619 8.25684 78.3994 7.81445 79.5537 7.81445C81.5635 7.81445 82.5771 8.94824 82.5947 11.2158V17.5H80.9688V11.207C80.9629 10.5215 80.8047 10.0146 80.4941 9.68652C80.1895 9.3584 79.7119 9.19434 79.0615 9.19434C78.5342 9.19434 78.0713 9.33496 77.6729 9.61621C77.2744 9.89746 76.9639 10.2666 76.7412 10.7236V17.5H75.1152V4H76.7412V9.1416ZM93.0801 12.8506C93.0801 14.3037 92.7461 15.4727 92.0781 16.3574C91.4102 17.2363 90.5137 17.6758 89.3887 17.6758C88.1875 17.6758 87.2588 17.251 86.6025 16.4014L86.5234 17.5H85.0293V4H86.6553V9.03613C87.3115 8.22168 88.2168 7.81445 89.3711 7.81445C90.5254 7.81445 91.4307 8.25098 92.0869 9.12402C92.749 9.99707 93.0801 11.1924 93.0801 12.71V12.8506ZM91.4541 12.666C91.4541 11.5586 91.2402 10.7031 90.8125 10.0996C90.3848 9.49609 89.7695 9.19434 88.9668 9.19434C87.8945 9.19434 87.124 9.69238 86.6553 10.6885V14.8018C87.1533 15.7979 87.9297 16.2959 88.9844 16.2959C89.7637 16.2959 90.3701 15.9941 90.8037 15.3906C91.2373 14.7871 91.4541 13.8789 91.4541 12.666ZM94.7061 12.6572C94.7061 11.7256 94.8877 10.8877 95.251 10.1436C95.6201 9.39941 96.1299 8.8252 96.7803 8.4209C97.4365 8.0166 98.1836 7.81445 99.0215 7.81445C100.316 7.81445 101.362 8.2627 102.159 9.15918C102.962 10.0557 103.363 11.248 103.363 12.7363V12.8506C103.363 13.7764 103.185 14.6084 102.827 15.3467C102.476 16.0791 101.969 16.6504 101.307 17.0605C100.65 17.4707 99.8945 17.6758 99.0391 17.6758C97.75 17.6758 96.7041 17.2275 95.9014 16.3311C95.1045 15.4346 94.7061 14.248 94.7061 12.7715V12.6572ZM96.3408 12.8506C96.3408 13.9053 96.584 14.752 97.0703 15.3906C97.5625 16.0293 98.2188 16.3486 99.0391 16.3486C99.8652 16.3486 100.521 16.0264 101.008 15.3818C101.494 14.7314 101.737 13.8232 101.737 12.6572C101.737 11.6143 101.488 10.7705 100.99 10.126C100.498 9.47559 99.8418 9.15039 99.0215 9.15039C98.2188 9.15039 97.5713 9.46973 97.0791 10.1084C96.5869 10.7471 96.3408 11.6611 96.3408 12.8506ZM111.273 17.5C111.18 17.3125 111.104 16.9785 111.045 16.498C110.289 17.2832 109.387 17.6758 108.338 17.6758C107.4 17.6758 106.63 17.4121 106.026 16.8848C105.429 16.3516 105.13 15.6777 105.13 14.8633C105.13 13.873 105.505 13.1055 106.255 12.5605C107.011 12.0098 108.071 11.7344 109.437 11.7344H111.019V10.9873C111.019 10.4189 110.849 9.96777 110.509 9.63379C110.169 9.29395 109.668 9.12402 109.006 9.12402C108.426 9.12402 107.939 9.27051 107.547 9.56348C107.154 9.85645 106.958 10.2109 106.958 10.627H105.323C105.323 10.1523 105.49 9.69531 105.824 9.25586C106.164 8.81055 106.621 8.45898 107.195 8.20117C107.775 7.94336 108.411 7.81445 109.103 7.81445C110.198 7.81445 111.057 8.08984 111.678 8.64062C112.299 9.18555 112.621 9.93848 112.645 10.8994V15.2764C112.645 16.1494 112.756 16.8438 112.979 17.3594V17.5H111.273ZM108.575 16.2607C109.085 16.2607 109.568 16.1289 110.025 15.8652C110.482 15.6016 110.813 15.2588 111.019 14.8369V12.8857H109.744C107.752 12.8857 106.756 13.4688 106.756 14.6348C106.756 15.1445 106.926 15.543 107.266 15.8301C107.605 16.1172 108.042 16.2607 108.575 16.2607ZM119.79 9.44922C119.544 9.4082 119.277 9.3877 118.99 9.3877C117.924 9.3877 117.2 9.8418 116.819 10.75V17.5H115.193V7.99023H116.775L116.802 9.08887C117.335 8.23926 118.091 7.81445 119.069 7.81445C119.386 7.81445 119.626 7.85547 119.79 7.9375V9.44922ZM120.722 12.666C120.722 11.207 121.067 10.0352 121.759 9.15039C122.45 8.25977 123.355 7.81445 124.475 7.81445C125.588 7.81445 126.47 8.19531 127.12 8.95703V4H128.746V17.5H127.252L127.173 16.4805C126.522 17.2773 125.617 17.6758 124.457 17.6758C123.355 17.6758 122.456 17.2246 121.759 16.3223C121.067 15.4199 120.722 14.2422 120.722 12.7891V12.666ZM122.348 12.8506C122.348 13.9287 122.57 14.7725 123.016 15.3818C123.461 15.9912 124.076 16.2959 124.861 16.2959C125.893 16.2959 126.646 15.833 127.12 14.9072V10.5391C126.634 9.64258 125.887 9.19434 124.879 9.19434C124.082 9.19434 123.461 9.50195 123.016 10.1172C122.57 10.7324 122.348 11.6436 122.348 12.8506Z" fill="white"/>
</svg>
