<svg width="16" height="16" viewBox="0 0 16 16" fill="none" xmlns="http://www.w3.org/2000/svg">
<path d="M0.5 0.5H7.16667V2.16667H0.5V0.5ZM8.83333 0.5H15.5V2.16667H8.83333V0.5ZM0.5 3.83333H7.16667V5.5H0.5V3.83333ZM8.83333 3.83333H15.5V5.5H8.83333V3.83333ZM0.5 7.16667H7.16667V8.83333H0.5V7.16667ZM8.83333 7.16667H15.5V8.83333H8.83333V7.16667ZM0.5 10.5H7.16667V12.1667H0.5V10.5ZM8.83333 10.5H15.5V12.1667H8.83333V10.5ZM0.5 13.8333H7.16667V15.5H0.5V13.8333ZM8.83333 13.8333H15.5V15.5H8.83333V13.8333Z" fill="#555555"/>
</svg>
